<svg width="215" height="215" viewBox="0 0 215 215" fill="none" xmlns="http://www.w3.org/2000/svg">
<path d="M34.4916 42.2947C34.2817 41.0403 35.0778 39.8679 36.2697 39.676L135.542 23.6961C136.734 23.5042 137.871 24.3656 138.081 25.62L157.085 139.186C157.295 140.44 156.499 141.612 155.307 141.804L56.0345 157.784C54.8426 157.976 53.7062 157.115 53.4963 155.86L34.4916 42.2947Z" fill="#FFAB00"/>
<path d="M27.0861 64.5497C26.7593 63.3204 27.439 62.0686 28.6044 61.7537L77.1336 48.6417L102.453 41.8007L114.189 38.6297C114.778 38.4706 115.409 38.5784 115.93 38.9269L130.889 48.9393C131.358 49.2532 131.701 49.7383 131.85 50.2978L135.465 63.8955L143.157 92.8314L157.949 148.477C158.276 149.707 157.596 150.958 156.431 151.273L59.3721 177.497C58.2068 177.812 56.9972 177.071 56.6705 175.842L27.0861 64.5497Z" fill="#FFDF99"/>
<path d="M118.22 50.6464C118.566 51.9505 119.903 52.7223 121.206 52.3703L131.507 49.5871L115.001 38.5396L118.22 50.6464Z" fill="#FFF9EB"/>
<path fill-rule="evenodd" clip-rule="evenodd" d="M64.7494 91.3315C64.607 90.8534 64.8059 90.3809 65.1936 90.2762L110.918 77.922C111.306 77.8172 111.736 78.1199 111.878 78.598C112.02 79.076 111.822 79.5485 111.434 79.6533L65.7094 92.0075C65.3216 92.1122 64.8919 91.8096 64.7494 91.3315Z" fill="#FFBB33"/>
<path fill-rule="evenodd" clip-rule="evenodd" d="M71.4396 112.94C71.2972 112.462 71.4861 111.993 71.8616 111.891L116.139 99.9278C116.515 99.8263 116.935 100.132 117.077 100.61C117.219 101.088 117.031 101.558 116.655 101.659L72.3774 113.622C72.0019 113.724 71.582 113.418 71.4396 112.94Z" fill="#FFBB33"/>
<path fill-rule="evenodd" clip-rule="evenodd" d="M78.1852 133.689C78.0428 133.21 78.0841 132.781 78.2774 132.728L101.074 126.569C101.268 126.517 101.54 126.862 101.682 127.34C101.825 127.818 101.783 128.248 101.59 128.3L78.7931 134.46C78.5998 134.512 78.3276 134.167 78.1852 133.689Z" fill="#FFBB33"/>
<path d="M155.885 186.744L129.658 164.52C127.393 162.607 127.115 159.22 129.034 156.974L169.861 108.058C168.666 107.041 174.103 105.474 177.363 108.245L203.59 130.47C205.855 132.383 206.133 135.769 204.214 138.015L163.443 186.127C160.947 188.983 154.315 189.532 155.885 186.744Z" fill="#FECFD8"/>
<path d="M153.666 186.932L127.439 164.708C125.174 162.795 124.896 159.408 126.816 157.162L167.586 109.051C169.499 106.786 172.886 106.508 175.132 108.427L201.359 130.652C203.624 132.565 203.902 135.951 201.982 138.197L161.212 186.309C159.318 188.567 155.931 188.845 153.666 186.932Z" fill="white"/>
<path d="M161.629 177.211L136.367 155.813C135.639 155.194 135.545 154.1 136.164 153.372L170.459 112.894C171.078 112.167 172.172 112.072 172.9 112.691L198.162 134.088C198.89 134.708 198.984 135.802 198.365 136.529L164.07 177.007C163.445 177.748 162.357 177.83 161.629 177.211Z" fill="#8888F2"/>
<path d="M143.034 174.436C145.063 175.432 147.516 174.595 148.512 172.566C149.508 170.537 148.671 168.085 146.642 167.088C144.613 166.092 142.16 166.929 141.164 168.958C140.168 170.988 141.005 173.44 143.034 174.436Z" fill="white"/>
<path fill-rule="evenodd" clip-rule="evenodd" d="M146.399 167.581C144.642 166.718 142.519 167.443 141.656 169.2C140.794 170.957 141.519 173.081 143.275 173.943C145.032 174.806 147.156 174.081 148.018 172.324C148.881 170.567 148.156 168.444 146.399 167.581ZM140.671 168.716C141.801 166.415 144.582 165.466 146.883 166.596C149.184 167.725 150.134 170.507 149.004 172.808C147.874 175.109 145.093 176.058 142.792 174.929C140.491 173.799 139.541 171.018 140.671 168.716Z" fill="#DBDBDB"/>
<path d="M162.619 151.243C159.797 148.865 159.444 144.66 161.823 141.838L168.283 134.194C170.661 131.372 174.867 131.018 177.689 133.397C180.511 135.775 180.864 139.979 178.485 142.802L172.026 150.446C169.647 153.268 165.442 153.621 162.619 151.243Z" fill="#FFCC66"/>
<path fill-rule="evenodd" clip-rule="evenodd" d="M162.591 137.263C162 136.65 161.235 137.263 161.235 137.263L161.232 137.266L161.225 137.273L161.202 137.296C161.182 137.316 161.155 137.343 161.119 137.379C161.049 137.45 160.95 137.554 160.828 137.687C160.584 137.952 160.247 138.336 159.871 138.818C159.121 139.777 158.196 141.144 157.532 142.749C156.868 144.353 156.447 146.239 156.767 148.208C157.058 149.99 157.944 151.77 159.678 153.418C159.549 153.467 159.43 153.549 159.334 153.663L156.558 156.941L153.866 154.681C153.505 154.378 152.968 154.425 152.666 154.785C152.363 155.146 152.41 155.683 152.77 155.985L156.022 158.716C156.047 158.744 156.075 158.77 156.105 158.795C156.136 158.822 156.169 158.846 156.202 158.867L159.433 161.579C159.793 161.882 160.33 161.835 160.633 161.475C160.935 161.114 160.888 160.577 160.528 160.275L157.863 158.037L160.634 154.763C160.729 154.651 160.79 154.521 160.818 154.387C162.789 155.883 164.747 156.468 166.599 156.435C168.589 156.399 170.372 155.651 171.836 154.715C173.301 153.779 174.488 152.629 175.303 151.723C175.713 151.269 176.033 150.871 176.253 150.584C176.363 150.441 176.447 150.325 176.506 150.243C176.535 150.203 176.558 150.171 176.573 150.148L176.592 150.121L176.597 150.113L176.599 150.111C176.599 150.111 176.6 150.109 175.917 149.647L176.6 150.109C176.864 149.719 176.761 149.19 176.372 148.926C175.982 148.663 175.453 148.765 175.189 149.155L175.187 149.158L175.175 149.175C175.164 149.192 175.146 149.217 175.121 149.251C175.073 149.319 174.999 149.42 174.901 149.548C174.704 149.805 174.412 150.167 174.038 150.584C173.284 151.42 172.212 152.453 170.919 153.28C169.624 154.107 168.147 154.703 166.569 154.731C165.01 154.76 163.266 154.237 161.406 152.677L161.405 152.676C159.529 151.108 158.7 149.476 158.449 147.934C158.195 146.373 158.52 144.817 159.106 143.4C159.692 141.985 160.521 140.752 161.213 139.867C161.557 139.426 161.863 139.077 162.082 138.84C162.191 138.721 162.277 138.631 162.336 138.572C162.365 138.542 162.387 138.52 162.401 138.506L162.416 138.491L162.419 138.488C162.419 138.488 163.182 137.875 162.591 137.263Z" fill="#FFCC66"/>
<path d="M189.913 139.537C191.48 140.307 193.374 139.66 194.144 138.093C194.913 136.526 194.267 134.632 192.7 133.862C191.132 133.093 189.238 133.74 188.469 135.307C187.7 136.874 188.346 138.768 189.913 139.537Z" fill="#FF8DA6"/>
<path d="M203.92 132.063C203.494 132.178 203.157 132.551 203.098 132.984C203.04 133.418 203.203 133.837 203.268 134.269C203.308 134.597 203.316 134.924 203.275 135.259C203.258 135.42 203.222 135.587 203.192 135.742C203.15 135.89 203.108 136.039 203.14 136.193C203.178 136.366 203.315 136.495 203.477 136.574C203.899 136.781 204.442 136.679 204.805 136.379C205.598 135.736 205.559 134.593 205.435 133.685C205.428 133.604 205.409 133.518 205.402 133.438C205.305 132.882 205.115 132.234 204.502 132.071C204.297 132.017 204.099 132.013 203.92 132.063Z" fill="#FFAEC0"/>
<path d="M57.1537 143.429L54.4429 124.325L47.4724 142.526L57.1537 143.429Z" fill="#FFCE66"/>
<path d="M81.0341 171.699L83.4867 148.722L74.3863 173.312L81.0341 171.699Z" fill="#FFCE66"/>
<path d="M48.7916 172.526L11.6019 169.465C10.5473 169.378 9.74162 168.439 9.82943 167.372L13.5659 121.976C13.6528 120.921 14.591 120.114 15.6567 120.202L52.8464 123.263C53.9011 123.35 54.7067 124.289 54.6189 125.355L50.8824 170.751C50.7511 171.803 49.8462 172.613 48.7916 172.526Z" fill="white"/>
<path d="M50.8138 126.885L17.2904 124.126L14.5012 158.014L48.0356 160.774L50.8248 126.886L50.8138 126.885Z" fill="#60E6F9"/>
<path d="M19.2373 158.404C19.2373 158.404 19.5252 147.478 28.6016 148.225C37.667 148.971 38.0078 140.239 38.0078 140.239C38.0078 140.239 39.3362 130.988 50.1893 134.461L48.0208 160.807L19.2345 158.437L19.2373 158.404Z" fill="#0AAEC2"/>
<mask id="mask0_1_4650" style="mask-type:alpha" maskUnits="userSpaceOnUse" x="14" y="124" width="37" height="37">
<path d="M50.8137 126.887L17.2924 124.126L14.5011 158.012L48.0334 160.774L50.8248 126.888L50.8137 126.887Z" fill="#1AD1E6"/>
</mask>
<g mask="url(#mask0_1_4650)">
<path d="M27.2769 140.383C29.5401 140.569 31.5332 138.885 31.7201 136.616C31.907 134.347 30.2224 132.36 27.9532 132.173C25.6901 131.986 23.697 133.67 23.5101 135.94C23.3292 138.209 25.0138 140.196 27.2769 140.383Z" fill="#CAF8FF"/>
</g>
<path d="M68.9809 194.963L32.9842 185.115C31.9634 184.836 31.3439 183.765 31.6263 182.733L43.6491 138.793C43.9285 137.772 44.9989 137.152 46.0305 137.434L82.0272 147.282C83.048 147.561 83.6674 148.632 83.3851 149.664L71.3623 193.604C71.0692 194.633 70.0017 195.243 68.9809 194.963Z" fill="white"/>
<path d="M79.3538 150.502L46.8958 141.622L37.9216 174.422L70.3796 183.302L79.3538 150.502Z" fill="#FECFD8"/>
<path fill-rule="evenodd" clip-rule="evenodd" d="M60.0582 155.843C60.4019 155.936 60.6616 156.212 60.7325 156.566L61.3237 159.514C61.4319 160.053 61.9565 160.403 62.4955 160.294C63.0346 160.186 63.3839 159.661 63.2757 159.122L62.6845 156.174C62.4651 155.08 61.651 154.212 60.5809 153.921L54.4832 152.261C53.9527 152.117 53.4057 152.43 53.2613 152.961C53.117 153.491 53.43 154.039 53.9605 154.183L60.0582 155.843Z" fill="#FE6784"/>
<path d="M65.4923 161.871C65.8454 160.573 65.0799 159.235 63.7827 158.882L53.9773 156.214C52.6801 155.861 51.3422 156.626 50.9892 157.924L49.0254 165.14C48.6723 166.438 49.4377 167.775 50.735 168.128L60.5404 170.797C61.8376 171.15 63.1754 170.384 63.5285 169.087L65.4923 161.871Z" fill="#FE6784"/>
<path d="M68.3625 162.968L65.0415 163.641L64.0626 167.238L66.5759 169.532C66.8443 169.772 67.2708 169.646 67.3639 169.304L68.9264 163.563C69.0194 163.222 68.7156 162.897 68.3625 162.968Z" fill="#FE6784"/>
<path opacity="0.5" d="M117.512 127.044L98.773 129.679L105.587 124.147L152.515 111.502L153.568 118.483L117.512 127.044Z" fill="#FFBB33"/>
<path d="M160.908 99.6687C161.251 100.348 160.96 101.146 160.231 101.535L106.498 127.881L102.996 121.393L156.594 95.483C157.433 95.0514 158.514 95.3109 158.959 96.0612C159.557 97.0682 160.042 97.9506 160.908 99.6687Z" fill="#FF8DA6"/>
<path d="M160.859 99.6459C161.223 100.335 160.939 101.16 160.193 101.558L106.497 127.881L105.354 125.852C105.354 125.852 140.757 108.727 159.979 98.7794C160.301 98.6128 160.232 98.4619 160.859 99.6459Z" fill="#FE6784"/>
<path d="M95.9623 126.97C94.5193 128.114 95.7637 130.173 97.6543 129.769L106.497 127.881L102.996 121.392L95.9623 126.97Z" fill="#FFEDC1"/>
<mask id="mask1_1_4650" style="mask-type:alpha" maskUnits="userSpaceOnUse" x="92" y="121" width="15" height="10">
<path d="M92.9865 129.329C92.3306 129.849 92.8963 130.785 93.7556 130.601L105.477 128.099C106.003 127.987 106.281 127.481 106.051 127.055L103.485 122.299C103.241 121.848 102.566 121.733 102.141 122.07L92.9865 129.329Z" fill="#FFEDC1"/>
</mask>
<g mask="url(#mask1_1_4650)">
<path d="M92.9862 129.329C92.3303 129.849 92.896 130.785 93.7553 130.602L98.5018 129.588L96.7511 126.344L92.9862 129.329Z" fill="#484848"/>
</g>
</svg>
